Land_normalized_Motion_pl02
version=1
nRows=20
nColumns=43
inDegrees=yes
endheader
time		pelvis_tilt		pelvis_list		pelvis_rotation		pelvis_tx		pelvis_ty		pelvis_tz		hip_flexion_r		hip_adduction_r		hip_rotation_r		knee_angle_r		ankle_angle_r		subtalar_angle_r		mtp_angle_r		hip_flexion_l		hip_adduction_l		hip_rotation_l		knee_angle_l		ankle_angle_l		subtalar_angle_l		mtp_angle_l		lumbar_extension		lumbar_bending		lumbar_rotation		neck_flexion		neck_lateral_bending		neck_rotation		arm_flex_r		arm_add_r		arm_rot_r		elbow_flex_r		pro_sup_r		wrist_flex_r		wrist_dev_r		hand_finger_flex_r		arm_flex_l		arm_add_l		arm_rot_l		elbow_flex_l		pro_sup_l		wrist_flex_l		wrist_dev_l		hand_finger_flex_l		
3.858485		2.233495		-13.949835		82.665017		-0.047872		0.478623		0.507827		103.861733		-1.433538		-1.319259		-117.508609		3.293188		16.516829		29.062092		100.807806		-7.769442		3.414690		-119.150894		15.616089		-8.546424		18.944749		-60.924926		-8.685495		1.314338		14.902596		8.110654		1.006291		89.238194		-21.414166		4.431467		74.208566		109.353151		-6.761200		-6.053774		-61.833784		112.857715		-32.846791		39.721462		73.943847		127.842210		-11.744691		-11.665063		-17.437367		
3.861465		2.035347		-14.604777		82.601945		-0.047785		0.477708		0.508324		104.633342		-1.651120		-1.205828		-117.473313		3.424760		17.623663		29.072179		101.531702		-7.821626		3.552960		-119.073984		15.563130		-7.672006		18.934715		-60.792251		-9.001188		1.009805		15.009660		8.697367		0.972953		89.885990		-21.569010		4.399125		74.346914		108.414104		-6.703950		-5.853498		-61.814218		114.339437		-31.977399		40.399154		72.688714		127.656723		-11.316810		-11.456286		-17.681926		
3.864444		1.862389		-15.219311		82.440035		-0.047688		0.476906		0.508823		105.360736		-1.765189		-1.080236		-117.397461		3.602357		18.355731		29.080303		102.238710		-7.987708		3.667047		-119.054039		15.590652		-7.080379		18.933136		-60.672640		-9.318289		0.782839		15.223697		9.092231		0.968129		90.680571		-21.559225		4.340279		74.215037		107.673927		-6.657610		-5.643547		-61.779329		115.517266		-31.162755		40.769515		71.539935		127.480843		-11.008317		-11.210031		-17.894031		
3.867424		1.675990		-15.786537		82.180093		-0.047592		0.475806		0.509327		106.080314		-1.803584		-0.967719		-117.357024		3.482563		19.067874		29.087259		102.998323		-8.257641		3.767076		-119.201770		15.522875		-6.535805		18.940404		-60.514905		-9.683455		0.676592		15.506541		9.300505		1.012774		91.528251		-21.583682		4.325497		73.881031		107.040170		-6.617179		-5.451855		-61.723709		116.593053		-30.322087		41.148256		70.361234		127.332963		-10.618328		-10.983924		-18.049149		
3.870404		1.570871		-16.391138		81.915002		-0.047163		0.475825		0.509891		106.664449		-1.772175		-0.981695		-117.120019		3.611919		19.506063		29.090694		103.560066		-8.532070		4.007095		-118.975979		15.494115		-6.241343		18.945636		-60.438782		-9.996566		0.412436		15.626978		9.388328		1.010630		92.322908		-21.400812		4.472496		73.711427		106.725706		-6.543384		-5.364520		-61.671855		117.472070		-29.748154		41.116086		69.425181		127.237292		-10.417359		-10.736806		-18.118999		
3.873384		1.300293		-16.996977		81.632429		-0.046778		0.475073		0.510424		107.425899		-1.783979		-0.880104		-117.039764		3.651083		20.213580		29.103513		104.254786		-8.855592		4.097740		-118.998470		15.511817		-5.244880		19.006114		-60.251698		-10.518524		0.279252		15.898289		10.045648		0.916417		92.961493		-21.702565		4.582487		73.560599		105.541398		-6.588411		-5.314792		-61.692645		118.676062		-28.753260		41.681684		68.131447		126.884440		-9.945698		-10.660314		-18.447445		
3.876364		0.959123		-17.581235		81.362907		-0.046139		0.474591		0.510870		108.141899		-1.781098		-0.739646		-116.950519		3.734921		20.842760		29.123240		104.873225		-9.194303		4.156674		-118.951829		15.657467		-4.003187		19.102832		-60.105932		-11.145849		0.094415		16.133160		11.024797		0.730281		93.421732		-22.255397		4.736119		73.677772		103.838576		-6.729491		-5.383682		-61.779390		119.904382		-27.684809		42.359836		66.791952		126.319388		-9.470235		-10.697041		-19.022370		
3.879343		0.820657		-18.110204		81.087998		-0.045959		0.473928		0.511409		108.753047		-1.839320		-0.793744		-116.844994		3.630827		21.437604		29.127346		105.533449		-9.499819		4.320916		-119.011738		15.532901		-3.648148		19.118818		-59.928352		-11.422541		-0.013334		16.283135		10.857861		0.780474		94.289049		-22.280638		5.115795		73.184462		103.480114		-6.600545		-5.363463		-61.735049		120.615870		-27.104742		42.486798		65.875999		126.206882		-9.215705		-10.474172		-19.119535		
3.882323		0.672745		-18.665729		80.837097		-0.045860		0.473452		0.511950		109.370216		-1.931411		-0.840260		-116.711502		3.710840		22.019605		29.131399		106.165104		-9.798684		4.458689		-118.999559		15.468894		-3.090326		19.150453		-59.729016		-11.684492		-0.106441		16.408010		10.838776		0.778809		95.125970		-22.355966		5.530263		72.709907		103.017973		-6.489074		-5.402833		-61.727389		121.322802		-26.515753		42.663971		64.956946		126.036723		-8.957178		-10.289912		-19.243016		
3.885303		0.555943		-19.221265		80.633008		-0.045622		0.473471		0.512458		109.888448		-2.024253		-0.920405		-116.511242		3.874792		22.467387		29.132728		106.643512		-10.098031		4.598727		-118.782662		15.494393		-2.545748		19.183617		-59.566578		-11.907013		-0.272337		16.447849		10.852243		0.760403		95.871893		-22.385322		5.949032		72.387459		102.669534		-6.369141		-5.473993		-61.725611		121.946296		-26.032710		42.728140		64.155263		125.853595		-8.799873		-10.119092		-19.353686		
3.888283		0.379534		-19.647972		80.515068		-0.045769		0.472841		0.512668		110.378239		-2.268315		-0.893875		-116.493588		3.859964		23.191557		29.133647		107.112460		-10.282856		4.758520		-118.854344		15.629105		-1.148752		19.285181		-59.399453		-12.121885		-0.303246		16.368494		11.095271		0.661027		96.436043		-22.966997		6.639841		72.162019		101.818625		-6.289421		-5.857765		-61.864575		122.609683		-25.420269		43.258396		63.273422		125.356275		-8.540107		-10.163494		-19.690022		
3.891263		0.294431		-20.092143		80.342831		-0.045535		0.472770		0.512970		110.766194		-2.362337		-0.933598		-116.341865		4.069685		23.375421		29.133147		107.490657		-10.599885		4.854908		-118.714382		15.719055		-0.975064		19.301552		-59.264550		-12.288752		-0.424609		16.491319		11.025692		0.683645		97.124367		-22.835648		6.864697		71.733015		101.735394		-6.174101		-5.779922		-61.816686		122.962639		-25.047737		43.215219		62.705892		125.269899		-8.484019		-9.984133		-19.731714		
3.894242		0.139990		-20.719474		80.108768		-0.045234		0.472407		0.513658		111.391041		-2.383673		-0.985507		-116.163050		4.237087		23.833119		29.130741		108.084093		-10.955290		4.918717		-118.558125		15.892942		-0.365238		19.350491		-58.919260		-12.513333		-0.518318		16.689776		10.910970		0.726925		98.130367		-22.873077		7.504790		70.897314		101.597098		-5.891470		-5.684694		-61.723113		123.581794		-24.432384		43.340487		61.667809		125.046921		-8.335404		-9.737138		-19.845013		
3.897222		0.079062		-20.951656		80.030435		-0.045253		0.472209		0.513383		111.533431		-2.565214		-0.932443		-116.128031		4.243918		23.983692		29.129750		108.243634		-11.149868		5.055399		-118.584782		15.957431		-0.156658		19.368058		-58.885089		-12.595186		-0.588517		16.693991		10.884407		0.734175		98.482949		-22.919713		7.707483		70.752292		101.569353		-5.806202		-5.693551		-61.697662		123.723624		-24.225339		43.436303		61.409587		124.971251		-8.286997		-9.697033		-19.885688		
3.900202		-0.059010		-21.435013		79.929895		-0.045331		0.471912		0.514030		111.972906		-2.727716		-0.953335		-115.999353		3.996054		24.829668		29.117829		108.649108		-11.337892		5.242840		-118.436479		16.667538		2.097191		19.566243		-58.661327		-12.728334		-0.530145		16.558067		10.927475		0.623521		99.623196		-23.889453		9.259234		70.047848		101.547268		-5.254861		-5.949998		-61.625448		124.594538		-23.474581		44.165309		60.025820		124.040166		-8.191064		-9.847210		-20.471998		
3.903182		-0.094456		-21.718461		79.872727		-0.045007		0.471982		0.513848		112.097789		-2.835104		-0.933455		-115.902573		4.064378		24.929613		29.116855		108.784029		-11.564879		5.361113		-118.319879		16.781045		2.225328		19.583652		-58.581143		-12.813758		-0.608998		16.628695		10.902146		0.621627		100.002288		-23.841231		9.414521		69.815054		101.552502		-5.173967		-5.908582		-61.595667		124.710763		-23.258081		44.207264		59.755671		123.953166		-8.173016		-9.798797		-20.522977		
3.906162		-0.156589		-22.211095		79.742496		-0.044467		0.472184		0.514043		112.412577		-2.849286		-0.980634		-115.692588		4.179071		25.165301		29.114577		109.079089		-11.862497		5.437551		-118.021222		17.039243		2.567761		19.625988		-58.312341		-12.954087		-0.682530		16.821303		10.851432		0.621116		100.710712		-23.783829		9.835405		69.191952		101.575986		-4.963442		-5.794861		-61.519904		125.048242		-22.858544		44.269828		59.099969		123.751833		-8.132460		-9.680175		-20.639561		
3.909141		-0.179216		-22.528539		79.768093		-0.044648		0.472175		0.514246		112.561661		-3.083638		-0.984105		-115.562552		3.857739		25.697594		29.107600		109.203370		-11.963286		5.600977		-117.858305		17.856098		4.009285		19.791107		-58.213705		-12.922297		-0.627638		16.832749		10.820443		0.543737		101.596685		-24.495338		11.094685		68.698512		101.894733		-4.452340		-5.987575		-61.454989		125.549014		-22.442401		44.811404		58.238475		123.007229		-8.146998		-9.982436		-21.118483		
3.912121		-0.194187		-22.765617		79.783748		-0.044612		0.472118		0.514167		112.631965		-3.272831		-0.964745		-115.473716		3.711259		25.985631		29.103925		109.258861		-12.095198		5.733911		-117.760982		18.291128		4.762598		19.878354		-58.150859		-12.926036		-0.628835		16.846642		10.797483		0.501994		102.123148		-24.845549		11.752310		68.432555		102.060507		-4.183834		-6.086650		-61.421416		125.789637		-22.178409		45.115281		57.775266		122.609169		-8.151085		-10.141085		-21.373831		
3.915101		-0.181001		-23.255911		79.834999		-0.044675		0.472382		0.514646		112.909312		-3.519944		-1.087721		-115.230872		3.728745		26.700091		29.099433		109.441187		-12.292658		5.758296		-117.343522		19.342771		6.198610		20.088368		-57.883472		-12.845802		-0.548063		17.098636		10.651372		0.362917		103.225808		-25.382972		13.109684		67.565699		102.417987		-3.683998		-6.256147		-61.510017		126.329994		-21.691271		45.721287		56.672354		121.482952		-8.225003		-10.574357		-22.093566		
